<?xml version="1.0" encoding="UTF-8"?>
<svg id="Layer_1" data-name="Layer 1" xmlns="http://www.w3.org/2000/svg" viewBox="0 0 709.95 837">
  <path d="m279.86,343.9h271.25v127.33c0,54.81-11.39,102.69-34.18,143.62-22.79,40.94-54.63,72.69-95.53,95.25-40.9,22.56-88.99,33.84-144.23,33.84s-104.23-10.61-145.85-31.83c-41.63-21.22-73.92-51.13-96.87-89.73C11.48,583.77,0,538.74,0,487.27v-215.06c0-54.81,11.39-102.6,34.17-143.37,22.78-40.77,54.63-72.44,95.53-95C170.61,11.28,218.68,0,273.94,0c45.56,0,87.09,9.02,124.59,27.07,37.49,18.05,68.97,43.28,94.45,75.7,25.47,32.42,42.69,70.36,51.67,113.8h-118.94c-10.05-37.76-29.6-66.67-58.66-86.73s-60.1-30.08-93.11-30.08c-48.8,0-87.91,15.79-117.33,47.37-29.42,31.58-44.13,73.28-44.13,125.08v215.06c0,47.46,15.07,85.47,45.21,114.05s69.96,42.86,119.48,42.86,87.9-15.04,117.33-45.12c29.42-30.08,44.13-72.02,44.13-125.83v-31.58h-158.77v-97.75Z" fill="#1a1a1a"/>
  <rect x="279.95" y="344" width="430" height="98" fill="#d4145a"/>
  <rect x="438.95" y="442" width="112" height="395" fill="#d4145a"/>
  <rect x="279.95" y="344" width="159" height="98" fill="#1a1a1a"/>
</svg>